<svg width="14" height="14" viewBox="0 0 14 14" fill="none" xmlns="http://www.w3.org/2000/svg">
<path d="M7.00883 8.39097L6.99999 8.38213L6.99115 8.39097L2.09115 13.291C1.91039 13.4717 1.68034 13.5623 1.39999 13.5623C1.11963 13.5623 0.889587 13.4717 0.708827 13.291C0.528067 13.1102 0.437488 12.8802 0.437488 12.5998C0.437488 12.3194 0.528067 12.0894 0.708827 11.9086L5.60883 7.00864L5.61767 6.9998L5.60883 6.99097L0.708827 2.09097C0.528067 1.91021 0.437488 1.68016 0.437488 1.3998C0.437488 1.11945 0.528067 0.889404 0.708827 0.708644C0.889587 0.527883 1.11963 0.437305 1.39999 0.437305C1.68034 0.437305 1.91039 0.527883 2.09115 0.708644L6.99115 5.60864L6.99999 5.61748L7.00883 5.60864L11.9088 0.708644C12.0896 0.527883 12.3196 0.437305 12.6 0.437305C12.8803 0.437305 13.1104 0.527883 13.2911 0.708644C13.4719 0.889404 13.5625 1.11945 13.5625 1.3998C13.5625 1.68016 13.4719 1.91021 13.2911 2.09097L8.39115 6.99097L8.38231 6.9998L8.39115 7.00864L13.2911 11.9086C13.4719 12.0894 13.5625 12.3194 13.5625 12.5998C13.5625 12.8802 13.4719 13.1102 13.2911 13.291C13.1104 13.4717 12.8803 13.5623 12.6 13.5623C12.3196 13.5623 12.0896 13.4717 11.9088 13.291L7.00883 8.39097Z" fill="#2A3238" stroke="#343536" stroke-width="0.025"/>
</svg>
