<svg width="20" height="20" viewBox="0 0 20 20" fill="none" xmlns="http://www.w3.org/2000/svg">
<rect width="20" height="20" rx="10" fill="white"/>
<path d="M8.33333 11.625L13.3958 6.5625C13.5069 6.45139 13.6528 6.39583 13.8333 6.39583C14.0139 6.39583 14.1597 6.45139 14.2708 6.5625C14.3819 6.67361 14.4375 6.81944 14.4375 7C14.4375 7.18055 14.3819 7.32639 14.2708 7.4375L8.85417 12.8333C8.70139 12.9861 8.52778 13.0625 8.33333 13.0625C8.13889 13.0625 7.96528 12.9861 7.8125 12.8333L5.72917 10.7708C5.61806 10.6597 5.5625 10.5139 5.5625 10.3333C5.5625 10.1528 5.61806 10.0069 5.72917 9.89583C5.84028 9.78472 5.98611 9.72917 6.16667 9.72917C6.34722 9.72917 6.49306 9.78472 6.60417 9.89583L8.33333 11.625Z" fill="#1A1B25"/>
</svg>
