<svg width="356" height="20" viewBox="0 0 356 20" fill="none" xmlns="http://www.w3.org/2000/svg">
    <path d="M173.494 15.18C172.63 15.18 171.89 14.992 171.274 14.616C170.658 14.236 170.184 13.708 169.852 13.032C169.524 12.356 169.36 11.572 169.36 10.68C169.36 9.788 169.524 9.004 169.852 8.328C170.184 7.652 170.658 7.126 171.274 6.75C171.89 6.37 172.63 6.18 173.494 6.18C174.358 6.18 175.098 6.37 175.714 6.75C176.334 7.126 176.808 7.652 177.136 8.328C177.468 9.004 177.634 9.788 177.634 10.68C177.634 11.572 177.468 12.356 177.136 13.032C176.808 13.708 176.334 14.236 175.714 14.616C175.098 14.992 174.358 15.18 173.494 15.18ZM173.494 13.818C174.074 13.822 174.556 13.694 174.94 13.434C175.328 13.174 175.618 12.808 175.81 12.336C176.006 11.864 176.104 11.312 176.104 10.68C176.104 10.048 176.006 9.5 175.81 9.036C175.618 8.568 175.328 8.204 174.94 7.944C174.556 7.684 174.074 7.55 173.494 7.542C172.914 7.538 172.432 7.666 172.048 7.926C171.664 8.186 171.374 8.552 171.178 9.024C170.986 9.496 170.89 10.048 170.89 10.68C170.89 11.312 170.986 11.862 171.178 12.33C171.37 12.794 171.658 13.156 172.042 13.416C172.43 13.676 172.914 13.81 173.494 13.818ZM178.828 15V6.36H182.398C182.482 6.36 182.59 6.364 182.722 6.372C182.854 6.376 182.976 6.388 183.088 6.408C183.588 6.484 184 6.65 184.324 6.906C184.652 7.162 184.894 7.486 185.05 7.878C185.21 8.266 185.29 8.698 185.29 9.174C185.29 9.878 185.112 10.484 184.756 10.992C184.4 11.496 183.854 11.808 183.118 11.928L182.5 11.982H180.274V15H178.828ZM183.79 15L182.086 11.484L183.556 11.16L185.428 15H183.79ZM180.274 10.632H182.338C182.418 10.632 182.508 10.628 182.608 10.62C182.708 10.612 182.8 10.596 182.884 10.572C183.124 10.512 183.312 10.406 183.448 10.254C183.588 10.102 183.686 9.93 183.742 9.738C183.802 9.546 183.832 9.358 183.832 9.174C183.832 8.99 183.802 8.802 183.742 8.61C183.686 8.414 183.588 8.24 183.448 8.088C183.312 7.936 183.124 7.83 182.884 7.77C182.8 7.746 182.708 7.732 182.608 7.728C182.508 7.72 182.418 7.716 182.338 7.716H180.274V10.632Z" fill="#959596"/>
    <rect y="10" width="150" height="1" fill="#BFC4C8"/>
    <rect x="206" y="10" width="150" height="1" fill="#BFC4C8"/>
    </svg>
    