<svg width="50" height="50" viewBox="0 0 50 50" fill="none" xmlns="http://www.w3.org/2000/svg">
<rect x="0.5" y="0.5" width="49" height="49" rx="6.5" fill="#343536" stroke="#BFC4C8"/>
<path d="M20.7147 31.6905C20.3218 31.6905 19.9855 31.5526 19.7058 31.2767C19.426 31.0009 19.2861 30.6693 19.2861 30.282V19.0144C19.2861 18.6271 19.426 18.2955 19.7058 18.0197C19.9855 17.7439 20.3218 17.606 20.7147 17.606H25.8397C26.0302 17.606 26.2117 17.6412 26.3843 17.7116C26.557 17.782 26.7088 17.8818 26.8397 18.0109L30.304 21.4264C30.4349 21.5555 30.5361 21.7051 30.6076 21.8753C30.679 22.0455 30.7147 22.2245 30.7147 22.4123V30.282C30.7147 30.6693 30.5748 31.0009 30.2951 31.2767C30.0153 31.5526 29.679 31.6905 29.2861 31.6905H20.7147ZM25.7147 21.8313V19.0144H20.7147V30.282H29.2861V22.5355H26.429C26.2266 22.5355 26.057 22.468 25.9201 22.3331C25.7832 22.1981 25.7147 22.0308 25.7147 21.8313Z" fill="white"/>
</svg>
