<svg width="21" height="18" viewBox="0 0 18 18" fill="none" xmlns="http://www.w3.org/2000/svg">
<path d="M12.325 13.275C12.1417 13.0583 12.05 12.8125 12.05 12.5375C12.05 12.2625 12.1417 12.0333 12.325 11.85L14.175 10H7C6.71667 10 6.47917 9.90417 6.2875 9.7125C6.09583 9.52083 6 9.28333 6 9C6 8.71667 6.09583 8.47917 6.2875 8.2875C6.47917 8.09583 6.71667 8 7 8H14.175L12.325 6.15C12.125 5.95 12.025 5.7125 12.025 5.4375C12.025 5.1625 12.125 4.925 12.325 4.725C12.5083 4.525 12.7375 4.425 13.0125 4.425C13.2875 4.425 13.5167 4.51667 13.7 4.7L17.3 8.3C17.4 8.4 17.4708 8.50833 17.5125 8.625C17.5542 8.74167 17.575 8.86667 17.575 9C17.575 9.13333 17.5542 9.25833 17.5125 9.375C17.4708 9.49167 17.4 9.6 17.3 9.7L13.7 13.3C13.4833 13.5167 13.2458 13.6125 12.9875 13.5875C12.7292 13.5625 12.5083 13.4583 12.325 13.275ZM2 18C1.45 18 0.979167 17.8042 0.5875 17.4125C0.195833 17.0208 0 16.55 0 16V2C0 1.45 0.195833 0.979167 0.5875 0.5875C0.979167 0.195833 1.45 0 2 0H8C8.28333 0 8.52083 0.0958333 8.7125 0.2875C8.90417 0.479167 9 0.716667 9 1C9 1.28333 8.90417 1.52083 8.7125 1.7125C8.52083 1.90417 8.28333 2 8 2H2V16H8C8.28333 16 8.52083 16.0958 8.7125 16.2875C8.90417 16.4792 9 16.7167 9 17C9 17.2833 8.90417 17.5208 8.7125 17.7125C8.52083 17.9042 8.28333 18 8 18H2Z" fill="#959596"/>
</svg>
