<svg width="16" height="20" viewBox="0 0 16 20" fill="none" xmlns="http://www.w3.org/2000/svg">
<path d="M9.99121 16.1836L10.0125 16.205V16.1748V9.9998C10.0125 9.71962 10.1072 9.48535 10.2964 9.29614C10.4856 9.10694 10.7199 9.0123 11 9.0123C11.2802 9.0123 11.5145 9.10694 11.7037 9.29614C11.8929 9.48535 11.9875 9.71962 11.9875 9.9998V16.1748V16.205L12.0089 16.1836L13.8839 14.3086C14.0648 14.1277 14.2909 14.033 14.5629 14.0248C14.8344 14.0166 15.0686 14.111 15.2662 14.3086L15.2666 14.309C15.4641 14.49 15.5668 14.716 15.5751 14.9877C15.5833 15.2591 15.4888 15.4933 15.2912 15.691L11.6912 19.291C11.5923 19.3898 11.4855 19.4596 11.3708 19.5005C11.2556 19.5417 11.1321 19.5623 11 19.5623C10.868 19.5623 10.7445 19.5417 10.6293 19.5005C10.5146 19.4596 10.4078 19.3898 10.3089 19.291L6.70889 15.691C6.52805 15.5101 6.43755 15.2842 6.43755 15.0123C6.43755 14.7408 6.53609 14.5065 6.73369 14.3088C6.93148 14.1276 7.16191 14.033 7.42544 14.0248C7.68843 14.0166 7.91849 14.1109 8.11621 14.3086L9.99121 16.1836ZM4.01255 3.8248V3.79463L3.99121 3.81597L2.11621 5.69097C1.90167 5.90551 1.66337 6.00374 1.40083 5.98733C1.1371 5.97085 0.914996 5.87207 0.733888 5.69097C0.536157 5.49324 0.437549 5.25889 0.437549 4.9873C0.437549 4.7154 0.528052 4.48948 0.708888 4.30864L4.30889 0.708644C4.40776 0.609767 4.51456 0.540038 4.62925 0.499076C4.74447 0.457927 4.86804 0.437305 5.00005 0.437305C5.13206 0.437305 5.25563 0.457927 5.37084 0.499076C5.48554 0.540038 5.59233 0.609767 5.69121 0.708644L9.29121 4.30864C9.47197 4.4894 9.56255 4.71945 9.56255 4.9998C9.56255 5.28016 9.47197 5.51021 9.29121 5.69097C9.09348 5.8887 8.85913 5.98731 8.58755 5.98731C8.31597 5.98731 8.08162 5.8887 7.88389 5.69097L6.00889 3.81597L5.98755 3.79463V3.8248V9.9998C5.98755 10.28 5.89292 10.5143 5.70371 10.7035C5.5145 10.8927 5.28023 10.9873 5.00005 10.9873C4.71986 10.9873 4.48559 10.8927 4.29639 10.7035C4.10718 10.5143 4.01255 10.28 4.01255 9.9998V3.8248Z" fill="#343536" stroke="#343536" stroke-width="0.025"/>
</svg>
