<svg width="94" height="46" viewBox="0 0 94 46" fill="none" xmlns="http://www.w3.org/2000/svg">
<rect x="1" y="1" width="44" height="44" rx="4" fill="#F2EAFD"/>
<path d="M16 22C15.45 22 14.9792 21.8042 14.5875 21.4125C14.1958 21.0208 14 20.55 14 20V16C14 15.45 14.1958 14.9792 14.5875 14.5875C14.9792 14.1958 15.45 14 16 14H20C20.55 14 21.0208 14.1958 21.4125 14.5875C21.8042 14.9792 22 15.45 22 16V20C22 20.55 21.8042 21.0208 21.4125 21.4125C21.0208 21.8042 20.55 22 20 22H16ZM16 32C15.45 32 14.9792 31.8042 14.5875 31.4125C14.1958 31.0208 14 30.55 14 30V26C14 25.45 14.1958 24.9792 14.5875 24.5875C14.9792 24.1958 15.45 24 16 24H20C20.55 24 21.0208 24.1958 21.4125 24.5875C21.8042 24.9792 22 25.45 22 26V30C22 30.55 21.8042 31.0208 21.4125 31.4125C21.0208 31.8042 20.55 32 20 32H16ZM26 22C25.45 22 24.9792 21.8042 24.5875 21.4125C24.1958 21.0208 24 20.55 24 20V16C24 15.45 24.1958 14.9792 24.5875 14.5875C24.9792 14.1958 25.45 14 26 14H30C30.55 14 31.0208 14.1958 31.4125 14.5875C31.8042 14.9792 32 15.45 32 16V20C32 20.55 31.8042 21.0208 31.4125 21.4125C31.0208 21.8042 30.55 22 30 22H26ZM26 32C25.45 32 24.9792 31.8042 24.5875 31.4125C24.1958 31.0208 24 30.55 24 30V26C24 25.45 24.1958 24.9792 24.5875 24.5875C24.9792 24.1958 25.45 24 26 24H30C30.55 24 31.0208 24.1958 31.4125 24.5875C31.8042 24.9792 32 25.45 32 26V30C32 30.55 31.8042 31.0208 31.4125 31.4125C31.0208 31.8042 30.55 32 30 32H26ZM16 20H20V16H16V20ZM26 20H30V16H26V20ZM26 30H30V26H26V30ZM16 30H20V26H16V30Z" fill="#343536"/>
<path d="M67 20C66.7167 20 66.4792 19.9042 66.2875 19.7125C66.0958 19.5208 66 19.2833 66 19C66 18.7167 66.0958 18.4792 66.2875 18.2875C66.4792 18.0958 66.7167 18 67 18H79C79.2833 18 79.5208 18.0958 79.7125 18.2875C79.9042 18.4792 80 18.7167 80 19C80 19.2833 79.9042 19.5208 79.7125 19.7125C79.5208 19.9042 79.2833 20 79 20H67ZM67 24C66.7167 24 66.4792 23.9042 66.2875 23.7125C66.0958 23.5208 66 23.2833 66 23C66 22.7167 66.0958 22.4792 66.2875 22.2875C66.4792 22.0958 66.7167 22 67 22H79C79.2833 22 79.5208 22.0958 79.7125 22.2875C79.9042 22.4792 80 22.7167 80 23C80 23.2833 79.9042 23.5208 79.7125 23.7125C79.5208 23.9042 79.2833 24 79 24H67ZM67 28C66.7167 28 66.4792 27.9042 66.2875 27.7125C66.0958 27.5208 66 27.2833 66 27C66 26.7167 66.0958 26.4792 66.2875 26.2875C66.4792 26.0958 66.7167 26 67 26H79C79.2833 26 79.5208 26.0958 79.7125 26.2875C79.9042 26.4792 80 26.7167 80 27C80 27.2833 79.9042 27.5208 79.7125 27.7125C79.5208 27.9042 79.2833 28 79 28H67ZM63 20C62.7167 20 62.4792 19.9042 62.2875 19.7125C62.0958 19.5208 62 19.2833 62 19C62 18.7167 62.0958 18.4792 62.2875 18.2875C62.4792 18.0958 62.7167 18 63 18C63.2833 18 63.5208 18.0958 63.7125 18.2875C63.9042 18.4792 64 18.7167 64 19C64 19.2833 63.9042 19.5208 63.7125 19.7125C63.5208 19.9042 63.2833 20 63 20ZM63 24C62.7167 24 62.4792 23.9042 62.2875 23.7125C62.0958 23.5208 62 23.2833 62 23C62 22.7167 62.0958 22.4792 62.2875 22.2875C62.4792 22.0958 62.7167 22 63 22C63.2833 22 63.5208 22.0958 63.7125 22.2875C63.9042 22.4792 64 22.7167 64 23C64 23.2833 63.9042 23.5208 63.7125 23.7125C63.5208 23.9042 63.2833 24 63 24ZM63 28C62.7167 28 62.4792 27.9042 62.2875 27.7125C62.0958 27.5208 62 27.2833 62 27C62 26.7167 62.0958 26.4792 62.2875 26.2875C62.4792 26.0958 62.7167 26 63 26C63.2833 26 63.5208 26.0958 63.7125 26.2875C63.9042 26.4792 64 26.7167 64 27C64 27.2833 63.9042 27.5208 63.7125 27.7125C63.5208 27.9042 63.2833 28 63 28Z" fill="black"/>
<rect x="0.5" y="0.5" width="93" height="45" rx="4.5" stroke="#BFC4C8"/>
</svg>
