<svg width="28" height="28" viewBox="0 0 28 28" fill="none" xmlns="http://www.w3.org/2000/svg">
<path d="M14.0001 20.4846C13.5279 20.4846 13.132 20.3205 12.8126 19.9923C12.4931 19.6642 12.3334 19.2576 12.3334 18.7724V6.5306L9.20841 9.74088C8.87508 10.0833 8.48619 10.2545 8.04175 10.2545C7.5973 10.2545 7.19453 10.069 6.83341 9.69807C6.50008 9.35564 6.34036 8.94901 6.35425 8.47817C6.36814 8.00733 6.52786 7.61496 6.83341 7.30107L12.8334 1.13734C13.0001 0.966129 13.1806 0.844852 13.3751 0.773513C13.5695 0.702174 13.7779 0.666504 14.0001 0.666504C14.2223 0.666504 14.4306 0.702174 14.6251 0.773513C14.8195 0.844852 15.0001 0.966129 15.1667 1.13734L21.1667 7.30107C21.5001 7.6435 21.6598 8.05013 21.6459 8.52097C21.632 8.99181 21.4723 9.38418 21.1667 9.69807C20.8334 10.0405 20.4376 10.2188 19.9792 10.2331C19.5209 10.2474 19.1251 10.0833 18.7917 9.74088L15.6667 6.5306V18.7724C15.6667 19.2576 15.507 19.6642 15.1876 19.9923C14.8681 20.3205 14.4723 20.4846 14.0001 20.4846ZM4.00008 27.3332C3.08341 27.3332 2.29869 26.9979 1.64591 26.3273C0.993137 25.6567 0.666748 24.8506 0.666748 23.9089V20.4846C0.666748 19.9995 0.82647 19.5928 1.14591 19.2647C1.46536 18.9365 1.86119 18.7724 2.33341 18.7724C2.80564 18.7724 3.20147 18.9365 3.52091 19.2647C3.84036 19.5928 4.00008 19.9995 4.00008 20.4846V23.9089H24.0001V20.4846C24.0001 19.9995 24.1598 19.5928 24.4792 19.2647C24.7987 18.9365 25.1945 18.7724 25.6667 18.7724C26.139 18.7724 26.5348 18.9365 26.8542 19.2647C27.1737 19.5928 27.3334 19.9995 27.3334 20.4846V23.9089C27.3334 24.8506 27.007 25.6567 26.3542 26.3273C25.7015 26.9979 24.9167 27.3332 24.0001 27.3332H4.00008Z" fill="white"/>
</svg>
